<svg xmlns="http://www.w3.org/2000/svg" viewBox="0 0 240 240">
  <g fill="none" stroke="#FAF8FF" stroke-width="1" stroke-linecap="round" opacity=".08">
    <path d="M19 44c22-18 48-17 72-8 31 11 48-7 77-11 23-3 43 6 55 24"/>
    <path d="M10 82c29-24 63-20 92-8 33 14 51-9 83-12 22-2 38 8 48 26"/>
    <path d="M13 121c28-21 61-17 91-4 33 14 55-8 87-7 20 1 33 10 41 25"/>
    <path d="M23 161c24-15 52-10 78 1 32 14 56-4 87 3 18 4 29 14 36 29"/>
    <path d="M39 199c20-10 42-5 64 4 28 12 52 0 78 8 14 4 23 11 29 22"/>
    <path d="M66 25c-9 24-6 46 8 67 18 28 9 52 2 77-6 21-1 38 15 52"/>
    <path d="M116 15c-13 29-8 55 9 79 17 24 11 47 1 72-8 21-5 39 9 56"/>
    <path d="M166 23c-14 24-11 47 4 70 19 29 9 55 0 81-6 18-2 32 11 44"/>
  </g>
</svg>
